<?xml version="1.0" encoding="utf-8"?>
<!-- Generator: Adobe Illustrator 21.1.0, SVG Export Plug-In . SVG Version: 6.00 Build 0)  -->
<svg version="1.1" id="Layer_1" xmlns="http://www.w3.org/2000/svg" xmlns:xlink="http://www.w3.org/1999/xlink" x="0px" y="0px"
	 viewBox="0 0 75 40" style="enable-background:new 0 0 75 40;" xml:space="preserve">
<style type="text/css">
	.st0{fill:#4E4F51;}
	.st1{fill:#FAAF40;}
	.st2{fill:#00BCF1;}
	.st3{fill:#B2D235;}
	.st4{opacity:0.74;fill:url(#SVGID_1_);}
	.st5{opacity:0.74;fill:url(#SVGID_2_);}
</style>
<g>
	<g>
		<g>
			<path class="st0" d="M3,35.1h2v0.4H3.4v1h1.5V37H3.4v1.4H5v0.4H3V35.1z"/>
			<path class="st0" d="M6.9,37.8L8,35.1h0.5L6.9,39l-1.6-3.9h0.5L6.9,37.8z"/>
			<path class="st0" d="M8.9,35.1h2v0.4H9.4v1h1.5V37H9.4v1.4h1.5v0.4h-2V35.1z"/>
			<path class="st0" d="M11.6,34.9l2.8,2.9v-2.7h0.5V39L12.1,36v2.8h-0.5V34.9z"/>
			<path class="st0" d="M16.6,38.8h-0.5v-3.3h-0.9v-0.4h2.2v0.4h-0.9V38.8z"/>
			<path class="st0" d="M20.8,37.5L20.8,37.5l0.8-2.4h0.8l0.7,2.4h0l0.7-2.4h1l-1.2,3.7h-1L22,36.6h0l-0.7,2.2h-1l-1.1-3.7h1
				L20.8,37.5z"/>
			<path class="st0" d="M29.1,36.9c0,1.2-0.9,2.1-2.1,2.1c-1.2,0-2.1-0.8-2.1-2.1c0-1.1,1-1.9,2.1-1.9C28.1,35,29.1,35.7,29.1,36.9z
				 M26,36.9c0,0.6,0.5,1.1,1.1,1.1c0.6,0,1.1-0.5,1.1-1.1c0-0.5-0.5-1-1.1-1C26.4,35.9,26,36.4,26,36.9z"/>
			<path class="st0" d="M32.8,38.8h-1.2l-0.9-1.4h0v1.4h-1v-3.7h1.4c0.7,0,1.3,0.4,1.3,1.1c0,0.5-0.3,1-0.8,1.1L32.8,38.8z
				 M30.6,36.7L30.6,36.7c0.4,0,0.8-0.1,0.8-0.5s-0.4-0.5-0.7-0.5h-0.1V36.7z"/>
			<path class="st0" d="M35.3,35.1h1.2L35,36.8l1.6,2h-1.3l-1.2-1.6h0v1.6h-1v-3.7h1v1.5h0L35.3,35.1z"/>
			<path class="st0" d="M38,35.9v0.6H39v0.8H38v1.5h-1v-3.7h2.1v0.8H38z"/>
			<path class="st0" d="M43.7,36.9c0,1.2-0.9,2.1-2.1,2.1c-1.2,0-2.1-0.8-2.1-2.1c0-1.1,1-1.9,2.1-1.9C42.7,35,43.7,35.7,43.7,36.9z
				 M40.6,36.9c0,0.6,0.5,1.1,1.1,1.1c0.6,0,1.1-0.5,1.1-1.1c0-0.5-0.5-1-1.1-1C41.1,35.9,40.6,36.4,40.6,36.9z"/>
			<path class="st0" d="M47.4,38.8h-1.2l-0.9-1.4h0v1.4h-1v-3.7h1.4c0.7,0,1.3,0.4,1.3,1.1c0,0.5-0.3,1-0.8,1.1L47.4,38.8z
				 M45.3,36.7L45.3,36.7c0.4,0,0.8-0.1,0.8-0.5s-0.4-0.5-0.7-0.5h-0.1V36.7z"/>
			<path class="st0" d="M50.4,36.3c-0.2-0.3-0.5-0.4-0.8-0.4c-0.6,0-1,0.5-1,1c0,0.6,0.4,1,1,1c0.3,0,0.6-0.2,0.8-0.4v1.2
				c-0.3,0.1-0.6,0.2-0.9,0.2c-0.5,0-1-0.2-1.4-0.5c-0.4-0.4-0.6-0.9-0.6-1.4c0-0.5,0.2-1,0.5-1.4c0.4-0.4,0.9-0.6,1.4-0.6
				c0.3,0,0.6,0.1,0.9,0.2V36.3z"/>
			<path class="st0" d="M52.1,35.9v0.6h1.1v0.8h-1.1V38h1.1v0.8h-2.1v-3.7h2.1v0.8H52.1z"/>
			<path class="st0" d="M59,36.9v0.1c0,1-0.7,1.8-1.8,1.8c-1,0-1.9-0.9-1.9-1.9c0-1.1,0.9-1.9,1.9-1.9c0.6,0,1.1,0.3,1.5,0.7
				L58.5,36c-0.3-0.4-0.7-0.6-1.2-0.6c-0.8,0-1.5,0.7-1.5,1.5c0,0.8,0.6,1.5,1.4,1.5c0.6,0,1.2-0.5,1.2-1.1h-1v-0.4H59z"/>
			<path class="st0" d="M61.9,38.8h-0.6l-1.1-1.6H60v1.6h-0.5v-3.7h0.6c0.3,0,0.7,0,1,0.2c0.3,0.2,0.5,0.5,0.5,0.9
				c0,0.5-0.4,1-0.9,1L61.9,38.8z M60,36.8h0.1c0.5,0,1-0.1,1-0.7c0-0.6-0.6-0.7-1-0.7H60V36.8z"/>
			<path class="st0" d="M66,36.9c0,1.1-0.9,1.9-1.9,1.9c-1.1,0-1.9-0.8-1.9-1.9c0-1.1,0.9-1.9,1.9-1.9C65.1,35,66,35.9,66,36.9z
				 M65.5,36.9c0-0.8-0.6-1.5-1.5-1.5c-0.9,0-1.5,0.7-1.5,1.5c0,0.8,0.7,1.5,1.5,1.5C64.9,38.4,65.5,37.8,65.5,36.9z"/>
			<path class="st0" d="M67,35.1v2.2c0,0.6,0.2,1.2,0.9,1.2c0.7,0,0.9-0.6,0.9-1.2v-2.2h0.5v2.4c0,0.8-0.5,1.4-1.4,1.4
				c-0.9,0-1.4-0.6-1.4-1.4v-2.4H67z"/>
			<path class="st0" d="M70.5,38.8H70v-3.7h0.5c1.1,0,1.5,0.4,1.5,1.1c0,0.8-0.6,1.1-1.3,1.1h-0.3V38.8z M70.5,36.8h0.1
				c0.5,0,1-0.1,1-0.7c0-0.6-0.6-0.7-1-0.7h-0.1V36.8z"/>
		</g>
	</g>
	<polygon class="st1" points="18.7,1 27.7,1 30.6,8.5 26.2,20.5 	"/>
	<polygon class="st0" points="46.9,1 55.4,1 51.2,12.6 	"/>
	<polygon class="st2" points="48.5,20.1 44.1,31.9 37.4,12.8 41.6,1 	"/>
	<polygon class="st3" points="33.3,1 41.6,1 30.5,31.9 26.2,20.5 	"/>
	<g>
		<path class="st0" d="M3,32V1h14.3v5.6H9.1v7h7v5.6h-7v7.3h8.1V32H3z"/>
	</g>
	<g>
		<path class="st0" d="M63.3,32c-3.5,0-5.3-1.4-6.7-3c-2.5-2.9-2.3-8.4-2.3-12.5c0-4.1-0.2-9.6,2.3-12.5c1.4-1.7,3.3-3,6.7-3
			c2.6,0,4.7,0.9,6.1,2.3c1.7,1.6,2.5,4,2.7,6.8h-6.2c0-1.3-0.3-3.6-2.6-3.6c-1.1,0-1.7,0.5-2,1.2c-0.7,1.4-0.8,5.2-0.8,8.9
			s0.1,7.5,0.8,8.9c0.3,0.7,0.9,1.2,2,1.2c2,0,2.6-1.9,2.6-3.5v-3.2h-2.6V15H72v7.7C72,28.7,68.6,32,63.3,32z"/>
	</g>
	<linearGradient id="SVGID_1_" gradientUnits="userSpaceOnUse" x1="23.1877" y1="4.7539" x2="30.0752" y2="15.8608">
		<stop  offset="0" style="stop-color:#FAAF40;stop-opacity:0"/>
		<stop  offset="1" style="stop-color:#000000;stop-opacity:0.3"/>
	</linearGradient>
	<polygon class="st4" points="18.7,1 27.7,1 30.6,8.4 26.2,20.5 	"/>
	<linearGradient id="SVGID_2_" gradientUnits="userSpaceOnUse" x1="44.5953" y1="19.6399" x2="39.2098" y2="9.7792">
		<stop  offset="0" style="stop-color:#00C1F2;stop-opacity:0"/>
		<stop  offset="1" style="stop-color:#000000;stop-opacity:0.3"/>
	</linearGradient>
	<polygon class="st5" points="48.5,20.1 44.1,31.9 37.4,12.8 41.6,1 	"/>
</g>
</svg>
